<svg xmlns="http://www.w3.org/2000/svg" viewBox="0 0 2421.12 576"><defs><style>.cls-1{fill:none;fill-rule:evenodd;}</style></defs><title>Artboard 3</title><path d="M0 0h2421.12v576H0zM1267.92 48.72l-11.76 1.2c-10.1 2.25-20.18 4.37-29.28 7.92a347.34 347.34 0 0 0-89.52 50.88c-10.46 8.15-18 19.1-29.28 26.64-3.08 2.07-8.26 6.48-13.92 4.8-6.18-1.84-11-9.75-8.16-17.76 4.13-11.62 13.42-15.3 19.92-23.52-4.46-4.85-13.26-2.08-18.72.24-11.6 4.92-30.52 13.92-33.12 27.36-3.13 16.2 18.9 32 23.52 42.48-.7 5-4 9.6-6.24 13.44l-10.08 18.48a183 183 0 0 0-21.84 59 72.08 72.08 0 0 0 .72 26.64c7 29.15 25.56 40.84 56.4 46.32 6.7 1.2 17.15 1.5 24.24.24 20.2-3.58 34.92-9.9 52.32-15.36 12.38-3.88 26-4.9 37.44-9.36l38.16-15.12c-3.72 9.76-11.47 15.43-15.12 24.76-1.55 4 0 10.8 2.88 12.48 7.93 4.57 22.3-3.9 26.4-7 20.15-15.06 30-40.67 49.68-56.16 5.16-4.05 22.85-19.72 31-13.92 5.13 16.5-18.42 36.66-25.2 47.52-4.33 6.94-7.33 16.93-2.16 25.44 4.06 6.68 13.17 9 22.8 6 13.65-4.23 24.18-12.2 35.28-19 3-1.82 8.26-5.38 13.2-4.56 7.38 1.23 10.5 9.94 14.4 14.88 5.05 6.42 12.8 11.06 21.12 14.16 12.66 4.7 30.73 2.58 42.24-1.44 20.25-7.07 35.06-18 50.16-30l14.4-13.68h.24c1.8 22.4 16.45 49.2 44.4 40.56a43.13 43.13 0 0 0 11.52-5.76c27.55-19.48 33.16-56.8 64.8-73.92 6.6-3.57 19.7-12.86 30.48-9.6 7.94 2.4 13.3 7.87 19.92 11.52-6.95 12.9-19.5 20.6-24.24 36-7.63 24.75 11.8 49.95 38.64 43.2 11.6-2.92 21-8.34 29.52-14.4l10.56-8.4.48.24c1.6 4.48 5.42 8.05 8.16 11.52 15.2 19.26 42 26.4 67.44 11.52 19.76-11.55 30.27-31.25 42-50.88 5.45-9.1 12.94-22.2 27.84-20.16l-1.92 23a52.4 52.4 0 0 0 .24 15.84c3.62 20.14 12.33 26.36 32.64 29.76 5.4.9 11.74-.1 16.08-1.44 10.22-3.14 16.5-9.8 24-15.6 2.7-2.1 7-6.7 12.48-5.52 6.55 1.4 11.67 8.86 15.36 13.44A41.06 41.06 0 0 0 2017.2 336c9.53 3.72 23.48 1.78 32.4-1 15-4.6 27.08-10.4 38.16-18.72l13.92-11.76h.24c1.34 22.25 24.3 40.63 51.12 35.52 15.68-3 28.75-9.13 43-14.16l20.64-6.72c4.78-1 9.55.9 12.48-1.68 1.58-1.4 2.24-5.73 2.64-8.16 2.27-13.68-14.22-13.23-23.52-10.08-17.15 5.82-30.3 16.62-48.24 21.6-9.26 2.57-19.9 1.52-22.56-6.24-3.36-9.83.9-23.62 3.6-31.44a239.18 239.18 0 0 1 30.48-59.76c4.42-6.28 9.5-15.5 16.56-19 3.53-1.73 11.08-1.7 15.84-1 13.86 2.14 39.32 6.73 46.8-3.84 2.1-3 4.84-10.14 1.92-14.4-8.08-11.8-31.95 2.86-43-3.12v-.72c6.13-4.65 19.8-19.2 21.36-27.84a13.2 13.2 0 0 0-4.32-11.76c-4.56-3.4-24.13-10.55-33.6-8.64-16.15 3.25-17 32.63-26.16 44.16-6.84 8.62-13.94 3.63-25.2 6.24-3.55.82-6.3 2.63-9.12 4.08-2.28 1.18-4.74 1.94-5.76 4.32-6 13.87 19.53 8.2 27.12 11-17.34 37.08-41.76 78.08-74.16 100.08-17.86 12.13-39.14 19.18-58.56 3.12-4.74-3.92-4.3-14.65.48-17.76 8.92-5.78 24.2-1.6 35.28-5.28 13.94-4.65 26.85-16.28 32.4-29.28 7.83-18.34-5.78-33.9-18.48-38.88-13.58-5.32-33.33-1.5-43 4.32-26.9 16.23-36.3 49-54.48 73.92-6.4 8.77-28.7 32.45-42.48 14.64-10.86-14-2.3-40.57 5-51.6 10.25-15.4 27-23.9 42-34.56 21.08-15 41.82-32.5 55.68-54.72 11.7-18.76 29.27-59.64-2.88-69.36-21.12-6.38-39.3 11.32-49.68 19.68-15.43 12.44-27.66 30.2-38.4 47.28-4.08 6.5-8.8 13.1-12 20.4-8.54 19.4-12.68 42.1-25 57.6-2.4 3-14.58 13.6-20.88 9.6-5.6-3.56-13.63-16.78-18-22.56-7.12-9.4-26.92-18.84-44.88-15.6a72.1 72.1 0 0 0-14.4 3.84c-25.82 10.58-42.72 31.12-53 57.12-7.13 17.95-9.9 34.34-27.84 41.52-3.2 1.28-8.44 2.82-13.2 1.68-15-3.6-11.8-22.6-4.56-31.92 8.66-11.17 23.46-17.3 31-29.52 2.8-4.56 3.6-13.9-1-17.28-8-6-21.56-.75-27.36-10.08-6.17-9.93-2.87-28.3-14.88-32.4-8.08-2.76-16.54 2.12-20.16 5.76-12.73 12.78-7.8 31.6-29.76 38.16-3 .9-8.72.83-10.56-1-3.1-3-3-9.92-5-13.92-4.72-9.2-18.56-10.6-24.48-1.44s3 20.9 2.4 30.48c-1.13 18.1-7.4 34-15.84 45.12-2.84 3.74-8.35 9.46-16.08 7.2-10.3-3-14.8-17.7-12.48-32.16 1.23-7.72 1.74-15.2 3.84-22.08 3.86-12.6 18.67-33-5.28-37.44-30.2-5.63-28.2 35.55-36 54.48a76.26 76.26 0 0 1-41.48 41.96c-11 4.5-45.25 5.65-52.08-3.12-6.07-7.8-1-13.2 5.76-16.08 9.3-3.93 21.32-3.5 32.16-6.72 16.6-4.94 29.16-13.2 37.44-26.4 9.5-15.14 8.1-32.07-8.64-38.64-12.35-4.85-30.63-3-42.48.72-29.24 9.17-47.35 28.4-61.92 52.08-6.84 11.12-13.14 22.9-23.76 30.24-2.8 1.94-8.1 6.37-13.68 4.32-7.08-2.6-5.82-16.26-2.4-22.08 6.85-11.63 17.1-20.1 24.48-31.2 2.5-3.74 6.7-9.58 5.52-16.56-2.53-14.76-14.43-23.13-32.16-17.76-6.87 2.08-12.88 6.37-19.44 7.92l-.24-.24c-.27-10.48 14.62-31.2 19.44-38.88 14.2-22.62 27.14-46.12 41-69.36L1411.68 91c-8.44-.9-20.16-5.64-29.52-1.92-8.4 3.34-12.1 13.75-16.08 21.6-6.82 13.4-14.82 25.72-22.56 38.4L1313 198.72c-16.54 26.52-32.44 54.13-56.4 73.2-13.9 11.05-30.57 24.23-54.72 24.48v-.24c5.77-17.33 20.52-25.18 27.36-41 2-4.7 3.84-12.2 2.64-19-3.9-21.82-15.56-30.48-37.2-34.32-11.46-2-23.05 2.1-30.72 5.28-13.8 5.7-24.66 13.32-35.52 21.84l-11.44 10.8a88.46 88.46 0 0 0-14.16 14.4c-6.28 8.22-9.2 21.5-18.24 26.88-8.74-1.07-7.75-21.87-5.52-30 5.5-20 15.4-35.63 25-51.6 3.32-5.54 5-11.43 8.4-17.28 3.55-6.16 12.6-5.37 20.88-7l49.68-7.68c49.32-10.9 87.17-21.8 117.12-51.84 5.25-5.27 10.55-11.7 13.68-19 12.97-30.27-17.84-47.92-45.92-47.92zM322.56 52.08L304.08 54a164.55 164.55 0 0 0-31.44 10.32c-10.1 4.44-19.32 10.72-28.08 16.56-50.2 33.45-88 83.63-110.4 144.72-7.95 21.7-12.9 45.76-17.52 71-1.85 10.12-1.7 25.34 4.32 30 9.86 7.65 17 .67 22.32-6.48 11.28-15 7.05-35.1 11-57.12l4.56-20.4c17.05-57.14 49.48-122.84 94.56-151.2 13.32-8.38 41.1-23.8 64.56-16.32 22.26 7.1 8.35 36.28.72 48.48-8.57 13.7-24.46 35.9-41.28 40.56-9.06 2.5-18.52-2.54-26.16-4.08s-14.55 1-19.68 2.4c-12.6 3.35-18.9 6.42-21.6 19.44-3.72 17.85 12.62 23.23 25.68 25.44l24 .48c17.4 3 30.37 16.8 26.16 39.84-4.54 24.83-27.05 44.53-45.36 55.92-8.13 5.06-24.6 8.6-31.44-.72-5.1-7-.12-18.18 3.36-23 8.54-11.9 35.87-22.07 36-39.36-26.3 3.4-52 19.7-63.12 38.64a53.38 53.38 0 0 0-4.8 12.24c-8.63 30.7 11.6 41.38 35.52 45.6 14.93 2.64 32.24-.9 42.72-5 31.85-12.57 53.23-39.77 66.72-70.56 12-27.42 8.65-52-12.72-67.2-4.26-3-9-6.66-14.4-8.4l29.52-22.08c18.48-14.4 37.74-38.5 45.36-63.36 7.17-23.38-10.43-39.4-25.68-45.36-6.83-2.72-15.35-3-24.92-2.92zM694.8 191.76c-3.52 1.4-6.73 1.2-9.6 2.88-15.4 9.06-23.08 25.87-33.6 39.84-8.77 11.65-19.3 21.82-28.32 33.12l-18 22.32c-5.9 6.7-13.3 15.94-22.32 19.2-4.18 1.5-12 2.26-13.92-1.68-3-5.55 6.65-17.35 8.88-20.4 8.18-11.18 17.3-20.55 24.48-32.88 2.35-4 6.27-10.76 5.28-17.52-2.26-15.44-17.7-22.4-35-17.28a81 81 0 0 0-19 8.16l-8.64 6c2-6.44 15.52-16.4 11.52-26.16-1.3-3.14-3.48-4.22-7.2-5-12.9-2.84-21.73 4.42-26.88 11-8.26 10.6-14.6 23.07-22.8 33.6-16.38 21-39.2 37.9-62.16 52.32-12.76 8-33.24 20.87-50.16 7.68-12.5-9.74-8.1-26.3 4.32-32.64 8.07-4.1 18.5-4.7 28.32-7.2 17.67-4.5 35.86-10.44 47-21.6 5.15-5.14 14.63-15.4 8.4-25.68-9.23-15.23-39.9-19.68-60.24-11.76-28.54 11.1-46.66 31.3-61.68 55.92-5.38 8.83-12.85 21.74-9.6 37.2 4.63 22 25.75 35.58 53.52 28.56 17.64-4.46 30.15-12.07 43.44-20.4 6.16-3.86 13.45-10.57 21.84-11.52l.24.24c-2.63 5.4-14 18.57-12.48 25.68 2.32 11.1 20.68 6.63 25.92 1.44 7.74-7.65 11.18-18.7 17.52-27.84a162.12 162.12 0 0 1 37.44-38.16c4.83-3.53 20.24-16.28 28.08-11 2.12 7-2.07 13.86-4.8 18.48-6.88 11.62-31.33 37-19.68 56.64 8.67 14.6 35.13 11.6 49.2 4.08 23.74-12.67 39.76-35.6 55.44-56.4 6.4-8.5 12.9-19.26 21.36-25.68h.24l3.36 12.24 2.64 16.56c2.12 12.93-3.08 23.26-4.8 32.64-8.76-2.26-.1-21.47-13.92-19-30.4 5.54-17.77 40.5 4.32 45.6 10 2.3 19.56-1.93 26.16-4.8 18-7.84 30.26-21.28 46.56-30.24.9 11.3 1.86 21.13 8.64 26.4 11.76 9.14 45.38 10.1 61.44 3.84 26.66-10.4 28.3-41.7 44.64-62.16 9.4-11.76 22.35-14.42 42.24-13.68-1.35 6.35-8.37 11.7-12 16.32-9.48 12.06-20.77 22.82-29 36-4.25 6.77-11.4 19.84 1 23.52 10.63 3.16 19.45-2.6 25-7 11.1-8.8 17.5-22.8 25-35.28a203.92 203.92 0 0 1 16.2-23.28c3.9-4.82 10.7-9 17.52-10.8 3.38-.87 8.66-1.46 10.08 1.44 2.44 4.67-5.27 14.54-7.2 17.28-6.67 9.45-25.9 31-18.48 48.24 8.35 19.38 32 13.46 50.88 8.64C970 325.66 979 325 985 320.4c5.07-3.94 6.87-11.7 9.36-18.24-12.16 3.38-22.3 10.1-35.76 13-7.22 1.53-14.76.15-17.52-4.32-5.26-8.5 3.27-18.66 6.72-23.52 10.43-14.7 32.26-31.48 35.52-51.36 1-6.18-2-10.2-4.32-13.2-11.27-14.47-35.76-1.75-48.72 1.92v-1c.64-1.77 1.85-5.54 1-7.68-3.25-6.72-17.33-6.12-24.48-3.12-17.8 7.45-21.95 26.12-45.92 30.24-14.38 2.5-13.14-14-19.2-20.16-10.93-11.06-36.84-13.5-54.24-6.72a91.18 91.18 0 0 0-45.36 37.68c-9.84 15.77-20.14 41.74-38.88 47.76 2.2-14.48.07-28.3-3.6-40.32-2-6.47-6.3-15.55-4.8-24.24a60.06 60.06 0 0 1 7.92-20.88c2.2-3.76 5.36-7.24 6-12.48.9-7.43-7.82-10.9-13.92-12zM622.08 395.76L567.12 498h29l11.76-22.8h53.76l12 22.8H703v-.24l-.48-.48-54.28-101.52zM1103.76 395.76L1048.8 498h29l11.76-22.8h53.76l12 22.8h29.28v-.24l-.48-.48-54.24-101.52zM722.88 396.48V498c44.58.35 86.48 3.37 106.32-21.36 5.9-7.35 14.1-17.84 11.76-32.88-4.73-30.2-26.7-41.82-56.64-46.8l-21.6-.48zM865.92 396.48V498h28.32v-32.4h22.08l27.36 32.4h32.88l-.72-.72-30.48-35.52c10.74-2.67 21.15-9.55 25.2-19 6.55-15.23-.87-30.67-10.08-37.2-18.87-13.33-62.56-9.14-94.56-9.08zM999.36 396.48V498h28.32V396.48zM1204.32 396.48V498h27.84v-64.32l62.16 64.32h24l-.24-101.52-27.84.24v61.92l-60-62.16zM1403.76 396.48V498h27.6v-65.52l36 42.72h.48l36-43.2v66h28.08V396.48h-30.48l-18.24 23c-2.24 2.93-14.36 19.72-16.08 19.2l-32.88-42.24zM1563.84 396.48V498h28.32V396.48zM1624.08 396.48V498h27.84v-64.32l62.16 64.32h24l-.24-101.52-27.84.24v61.92l-60-62.16zM1768.56 396.48V498h27.84v-64.32l62.16 64.32h24l-.24-101.52-27.84.24v61.92l-60-62.16z" class="cls-1"/></svg>