<svg xmlns="http://www.w3.org/2000/svg" viewBox="0 0 56.37 48.93"><defs><style>.cls-1{fill:#ffffff;}.cls-2{fill:none;stroke:#ffffff;stroke-miterlimit:10;stroke-width:3.54px;}</style></defs><title></title><g id="Layer_2" data-name="Layer 2"><g id="Layer_1-2" data-name="Layer 1"><path class="cls-1" d="M28.94,37.92V11h4a17.71,17.71,0,0,1,4.31.42A6.46,6.46,0,0,1,40,12.84a7.34,7.34,0,0,1,1.8,2.56,7.75,7.75,0,0,1,.68,3.14,6.36,6.36,0,0,1-2.21,4.9A6.51,6.51,0,0,1,43.67,26a7.58,7.58,0,0,1-1,9.55,7.32,7.32,0,0,1-3,1.87,17.54,17.54,0,0,1-4.58.51ZM33,22.56h1.27a4.69,4.69,0,0,0,3.32-1,3.89,3.89,0,0,0,1.05-3,3.71,3.71,0,0,0-1.08-2.88,4.5,4.5,0,0,0-3.14-1H33ZM33,34.1h2.51a6.23,6.23,0,0,0,4-1.08,3.74,3.74,0,0,0,1.36-3,3.8,3.8,0,0,0-1.31-2.93Q38.34,26,35.06,26H33Z"/><path class="cls-1" d="M21.27,37.92a17.54,17.54,0,0,1-4.58-.51,7.32,7.32,0,0,1-3-1.87,7.58,7.58,0,0,1-1-9.55,6.51,6.51,0,0,1,3.38-2.56,6.36,6.36,0,0,1-2.21-4.9,7.75,7.75,0,0,1,.68-3.14,7.34,7.34,0,0,1,1.8-2.56,6.46,6.46,0,0,1,2.74-1.41A17.71,17.71,0,0,1,23.38,11h4V37.92Zm2.09-23.18H21.94a4.5,4.5,0,0,0-3.14,1,3.71,3.71,0,0,0-1.08,2.88,3.89,3.89,0,0,0,1.05,3,4.69,4.69,0,0,0,3.32,1h1.27Zm0,11.22H21.31Q18,26,16.76,27.13a3.8,3.8,0,0,0-1.31,2.93,3.74,3.74,0,0,0,1.36,3,6.23,6.23,0,0,0,4,1.08h2.51Z"/><rect class="cls-2" x="1.77" y="1.77" width="52.83" height="45.38"/></g></g></svg>
