<svg xmlns="http://www.w3.org/2000/svg" viewBox="0 0 56.37 48.93"><defs><style>.cls-1{fill:#ffffff;}.cls-2{fill:none;stroke:#ffffff;stroke-miterlimit:10;stroke-width:3.54px;}</style></defs><title/><g id="Layer_2"><g id="Layer_1-2"><path d="M28.94 37.92V11h4a17.7 17.7 0 0 1 4.3.42A6.46 6.46 0 0 1 40 12.84a7.34 7.34 0 0 1 1.8 2.56 7.75 7.75 0 0 1 .68 3.14 6.36 6.36 0 0 1-2.2 4.9 6.5 6.5 0 0 1 3.4 2.56 7.58 7.58 0 0 1-1 9.55 7.32 7.32 0 0 1-3 1.87 17.54 17.54 0 0 1-4.6.5zM33 22.56h1.27a4.7 4.7 0 0 0 3.32-1 3.9 3.9 0 0 0 1.04-3 3.7 3.7 0 0 0-1.08-2.88 4.5 4.5 0 0 0-3.14-1H33zm0 11.54h2.5a6.23 6.23 0 0 0 4-1.08 3.74 3.74 0 0 0 1.37-3 3.8 3.8 0 0 0-1.3-2.93q-1.23-1.1-4.5-1.1H33zM21.27 37.92a17.54 17.54 0 0 1-4.58-.5 7.32 7.32 0 0 1-3-1.88 7.58 7.58 0 0 1-1-9.55 6.5 6.5 0 0 1 3.37-2.57 6.36 6.36 0 0 1-2.2-4.9 7.75 7.75 0 0 1 .67-3.14 7.34 7.34 0 0 1 1.8-2.57 6.46 6.46 0 0 1 2.74-1.4 17.7 17.7 0 0 1 4.3-.43h4v26.92zm2.1-23.18h-1.43a4.5 4.5 0 0 0-3.14 1 3.7 3.7 0 0 0-1.08 2.88 3.9 3.9 0 0 0 1.05 3 4.7 4.7 0 0 0 3.32 1h1.26zm0 11.22H21.3q-3.3.04-4.54 1.17a3.8 3.8 0 0 0-1.3 2.93 3.74 3.74 0 0 0 1.35 3 6.23 6.23 0 0 0 4 1.08h2.52z" class="cls-1"/><path d="M1.77 1.77H54.6v45.38H1.77z" class="cls-2"/></g></g></svg>