<?xml version="1.0" encoding="utf-8"?>
<!-- Generator: Adobe Illustrator 18.1.0, SVG Export Plug-In . SVG Version: 6.00 Build 0)  -->
<svg version="1.1" id="Layer_1" xmlns="http://www.w3.org/2000/svg" xmlns:xlink="http://www.w3.org/1999/xlink" x="0px" y="0px"
	 viewBox="0 0 26.2 14.4" enable-background="new 0 0 26.2 14.4" xml:space="preserve">
<g>
	<path stroke="#FFFFFF" stroke-width="0.2" stroke-miterlimit="10" d="M24.2,0.1H2c-1,0-1.9,0.5-1.9,1.2v11.8c0,0.7,0.8,1.2,1.9,1.2
		h22.3c1,0,1.9-0.5,1.9-1.2V1.3C26.1,0.6,25.2,0.1,24.2,0.1L24.2,0.1z M24.2,13.1H2V3.1h22.3V13.1z M24.2,13.1"/>
	<path fill="#FFFFFF" d="M6.2,10.8L3.3,9.7v0.5l2.2,0.8v0l-2.2,0.8v0.5l2.9-1.1V10.8z M6,10.8"/>
	<rect x="6.8" y="11.8" fill="#FFFFFF" width="2.7" height="0.6"/>
	<text transform="matrix(1.166 0 0 1 2.7068 5.0668)" fill="#FFFFFF" font-family="'SourceCodePro-Bold'" font-size="2">cd ~brycebenson</text>
	<ellipse fill="#EF3A32" cx="3.2" cy="1.6" rx="0.9" ry="0.8"/>
	<ellipse fill="#9ECC4D" cx="5.7" cy="1.6" rx="0.9" ry="0.8"/>
</g>
</svg>
