<svg xmlns="http://www.w3.org/2000/svg" viewBox="0 0 26.2 14.4" enable-background="new 0 0 26.2 14.4"><path stroke="#fff" stroke-width=".2" stroke-miterlimit="10" d="M24.2.1H2C1 .1.1.6.1 1.3v11.8c0 .7.8 1.2 1.9 1.2h22.3c1 0 1.9-.5 1.9-1.2V1.3c-.1-.7-1-1.2-2-1.2zm0 13H2v-10h22.3v10zm0 0"/><path fill="#fff" d="M6.2 10.8L3.3 9.7v.5l2.2.8-2.2.8v.5l2.9-1.1v-.4zm-.2 0"/><path fill="#fff" d="M6.8 11.8h2.7v.6H6.8z"/><text fill="#fff" transform="matrix(1.166 0 0 1 2.707 5.067)" font-family="'SourceCodePro-Bold'" font-size="2">cd ~brycebenson</text><ellipse cx="3.2" cy="1.6" fill="#EF3A32" rx=".9" ry=".8"/><ellipse cx="5.7" cy="1.6" fill="#9ECC4D" rx=".9" ry=".8"/></svg>